M48
; DRILL file {KiCad 8.0.7} date 2025-05-21T00:02:18-0400
; FORMAT={-:-/ absolute / inch / decimal}
; #@! TF.CreationDate,2025-05-21T00:02:18-04:00
; #@! TF.GenerationSoftware,Kicad,Pcbnew,8.0.7
; #@! TF.FileFunction,Plated,1,2,PTH
FMAT,2
INCH
; #@! TA.AperFunction,Plated,PTH,ViaDrill
T1C0.0197
; #@! TA.AperFunction,Plated,PTH,ComponentDrill
T2C0.0350
; #@! TA.AperFunction,Plated,PTH,ComponentDrill
T3C0.0591
%
G90
G05
T1
X7.8701Y-5.0394
X8.6496Y-4.1181
T2
X7.5505Y-3.9007
X7.5505Y-4.0007
X7.5505Y-4.1007
X7.5505Y-4.2007
X7.5505Y-4.3007
X7.5505Y-4.4007
X7.5505Y-4.5007
X8.1505Y-3.9007
X8.1505Y-4.0007
X8.1505Y-4.1007
X8.1505Y-4.2007
X8.1505Y-4.3007
X8.1505Y-4.4007
X8.1505Y-4.5007
T3
X7.313Y-4.9445
X7.313Y-5.6945
X7.563Y-4.8445
X7.563Y-5.5945
X8.063Y-4.9445
X8.063Y-5.6945
X8.313Y-4.8445
X8.313Y-5.5945
M30
