%TF.GenerationSoftware,KiCad,Pcbnew,8.0.7*%
%TF.CreationDate,2025-05-21T00:02:21-04:00*%
%TF.ProjectId,macropad,6d616372-6f70-4616-942e-6b696361645f,rev?*%
%TF.SameCoordinates,Original*%
%TF.FileFunction,Drillmap*%
%TF.FilePolarity,Positive*%
%FSLAX45Y45*%
G04 Gerber Fmt 4.5, Leading zero omitted, Abs format (unit mm)*
G04 Created by KiCad (PCBNEW 8.0.7) date 2025-05-21 00:02:21*
%MOMM*%
%LPD*%
G01*
G04 APERTURE LIST*
%ADD10C,0.050000*%
%ADD11C,0.200000*%
%ADD12C,0.170000*%
%ADD13C,0.400000*%
G04 APERTURE END LIST*
D10*
X17797125Y-9619250D02*
X22083375Y-9619250D01*
X22083375Y-15908625D01*
X17797125Y-15908625D01*
X17797125Y-9619250D01*
D11*
D12*
X18363000Y-12728000D02*
X18533000Y-12898000D01*
X18533000Y-12728000D02*
X18363000Y-12898000D01*
X18363000Y-14633000D02*
X18533000Y-14803000D01*
X18533000Y-14633000D02*
X18363000Y-14803000D01*
X19379000Y-12728000D02*
X19549000Y-12898000D01*
X19549000Y-12728000D02*
X19379000Y-12898000D01*
X19379000Y-14633000D02*
X19549000Y-14803000D01*
X19549000Y-14633000D02*
X19379000Y-14803000D01*
X20268000Y-12728000D02*
X20438000Y-12898000D01*
X20438000Y-12728000D02*
X20268000Y-12898000D01*
X20268000Y-14633000D02*
X20438000Y-14803000D01*
X20438000Y-14633000D02*
X20268000Y-14803000D01*
X21284000Y-12728000D02*
X21454000Y-12898000D01*
X21454000Y-12728000D02*
X21284000Y-12898000D01*
X21284000Y-14633000D02*
X21454000Y-14803000D01*
X21454000Y-14633000D02*
X21284000Y-14803000D01*
D13*
X19156000Y-12813000D02*
G75*
G02*
X18756000Y-12813000I-200000J0D01*
G01*
X18756000Y-12813000D02*
G75*
G02*
X19156000Y-12813000I200000J0D01*
G01*
X19156000Y-14718000D02*
G75*
G02*
X18756000Y-14718000I-200000J0D01*
G01*
X18756000Y-14718000D02*
G75*
G02*
X19156000Y-14718000I200000J0D01*
G01*
X21061000Y-12813000D02*
G75*
G02*
X20661000Y-12813000I-200000J0D01*
G01*
X20661000Y-12813000D02*
G75*
G02*
X21061000Y-12813000I200000J0D01*
G01*
X21061000Y-14718000D02*
G75*
G02*
X20661000Y-14718000I-200000J0D01*
G01*
X20661000Y-14718000D02*
G75*
G02*
X21061000Y-14718000I200000J0D01*
G01*
D11*
X18055402Y-16222609D02*
X18055402Y-16022609D01*
X18055402Y-16022609D02*
X18103021Y-16022609D01*
X18103021Y-16022609D02*
X18131592Y-16032133D01*
X18131592Y-16032133D02*
X18150640Y-16051180D01*
X18150640Y-16051180D02*
X18160164Y-16070228D01*
X18160164Y-16070228D02*
X18169688Y-16108323D01*
X18169688Y-16108323D02*
X18169688Y-16136894D01*
X18169688Y-16136894D02*
X18160164Y-16174990D01*
X18160164Y-16174990D02*
X18150640Y-16194037D01*
X18150640Y-16194037D02*
X18131592Y-16213085D01*
X18131592Y-16213085D02*
X18103021Y-16222609D01*
X18103021Y-16222609D02*
X18055402Y-16222609D01*
X18255402Y-16222609D02*
X18255402Y-16089275D01*
X18255402Y-16127371D02*
X18264926Y-16108323D01*
X18264926Y-16108323D02*
X18274449Y-16098799D01*
X18274449Y-16098799D02*
X18293497Y-16089275D01*
X18293497Y-16089275D02*
X18312545Y-16089275D01*
X18379211Y-16222609D02*
X18379211Y-16089275D01*
X18379211Y-16022609D02*
X18369688Y-16032133D01*
X18369688Y-16032133D02*
X18379211Y-16041656D01*
X18379211Y-16041656D02*
X18388735Y-16032133D01*
X18388735Y-16032133D02*
X18379211Y-16022609D01*
X18379211Y-16022609D02*
X18379211Y-16041656D01*
X18503021Y-16222609D02*
X18483973Y-16213085D01*
X18483973Y-16213085D02*
X18474449Y-16194037D01*
X18474449Y-16194037D02*
X18474449Y-16022609D01*
X18607783Y-16222609D02*
X18588735Y-16213085D01*
X18588735Y-16213085D02*
X18579211Y-16194037D01*
X18579211Y-16194037D02*
X18579211Y-16022609D01*
X18836354Y-16222609D02*
X18836354Y-16022609D01*
X18836354Y-16022609D02*
X18903021Y-16165466D01*
X18903021Y-16165466D02*
X18969688Y-16022609D01*
X18969688Y-16022609D02*
X18969688Y-16222609D01*
X19150640Y-16222609D02*
X19150640Y-16117847D01*
X19150640Y-16117847D02*
X19141116Y-16098799D01*
X19141116Y-16098799D02*
X19122069Y-16089275D01*
X19122069Y-16089275D02*
X19083973Y-16089275D01*
X19083973Y-16089275D02*
X19064926Y-16098799D01*
X19150640Y-16213085D02*
X19131592Y-16222609D01*
X19131592Y-16222609D02*
X19083973Y-16222609D01*
X19083973Y-16222609D02*
X19064926Y-16213085D01*
X19064926Y-16213085D02*
X19055402Y-16194037D01*
X19055402Y-16194037D02*
X19055402Y-16174990D01*
X19055402Y-16174990D02*
X19064926Y-16155942D01*
X19064926Y-16155942D02*
X19083973Y-16146418D01*
X19083973Y-16146418D02*
X19131592Y-16146418D01*
X19131592Y-16146418D02*
X19150640Y-16136894D01*
X19245878Y-16089275D02*
X19245878Y-16289275D01*
X19245878Y-16098799D02*
X19264926Y-16089275D01*
X19264926Y-16089275D02*
X19303021Y-16089275D01*
X19303021Y-16089275D02*
X19322069Y-16098799D01*
X19322069Y-16098799D02*
X19331592Y-16108323D01*
X19331592Y-16108323D02*
X19341116Y-16127371D01*
X19341116Y-16127371D02*
X19341116Y-16184513D01*
X19341116Y-16184513D02*
X19331592Y-16203561D01*
X19331592Y-16203561D02*
X19322069Y-16213085D01*
X19322069Y-16213085D02*
X19303021Y-16222609D01*
X19303021Y-16222609D02*
X19264926Y-16222609D01*
X19264926Y-16222609D02*
X19245878Y-16213085D01*
X19426830Y-16203561D02*
X19436354Y-16213085D01*
X19436354Y-16213085D02*
X19426830Y-16222609D01*
X19426830Y-16222609D02*
X19417307Y-16213085D01*
X19417307Y-16213085D02*
X19426830Y-16203561D01*
X19426830Y-16203561D02*
X19426830Y-16222609D01*
X19426830Y-16098799D02*
X19436354Y-16108323D01*
X19436354Y-16108323D02*
X19426830Y-16117847D01*
X19426830Y-16117847D02*
X19417307Y-16108323D01*
X19417307Y-16108323D02*
X19426830Y-16098799D01*
X19426830Y-16098799D02*
X19426830Y-16117847D01*
D12*
X17624625Y-16466125D02*
X17794625Y-16636125D01*
X17794625Y-16466125D02*
X17624625Y-16636125D01*
D11*
X18160164Y-16642609D02*
X18045878Y-16642609D01*
X18103021Y-16642609D02*
X18103021Y-16442609D01*
X18103021Y-16442609D02*
X18083973Y-16471180D01*
X18083973Y-16471180D02*
X18064926Y-16490228D01*
X18064926Y-16490228D02*
X18045878Y-16499752D01*
X18245878Y-16623561D02*
X18255402Y-16633085D01*
X18255402Y-16633085D02*
X18245878Y-16642609D01*
X18245878Y-16642609D02*
X18236354Y-16633085D01*
X18236354Y-16633085D02*
X18245878Y-16623561D01*
X18245878Y-16623561D02*
X18245878Y-16642609D01*
X18322069Y-16442609D02*
X18455402Y-16442609D01*
X18455402Y-16442609D02*
X18369688Y-16642609D01*
X18569688Y-16442609D02*
X18588735Y-16442609D01*
X18588735Y-16442609D02*
X18607783Y-16452133D01*
X18607783Y-16452133D02*
X18617307Y-16461656D01*
X18617307Y-16461656D02*
X18626830Y-16480704D01*
X18626830Y-16480704D02*
X18636354Y-16518799D01*
X18636354Y-16518799D02*
X18636354Y-16566418D01*
X18636354Y-16566418D02*
X18626830Y-16604513D01*
X18626830Y-16604513D02*
X18617307Y-16623561D01*
X18617307Y-16623561D02*
X18607783Y-16633085D01*
X18607783Y-16633085D02*
X18588735Y-16642609D01*
X18588735Y-16642609D02*
X18569688Y-16642609D01*
X18569688Y-16642609D02*
X18550640Y-16633085D01*
X18550640Y-16633085D02*
X18541116Y-16623561D01*
X18541116Y-16623561D02*
X18531592Y-16604513D01*
X18531592Y-16604513D02*
X18522069Y-16566418D01*
X18522069Y-16566418D02*
X18522069Y-16518799D01*
X18522069Y-16518799D02*
X18531592Y-16480704D01*
X18531592Y-16480704D02*
X18541116Y-16461656D01*
X18541116Y-16461656D02*
X18550640Y-16452133D01*
X18550640Y-16452133D02*
X18569688Y-16442609D01*
X18760164Y-16442609D02*
X18779211Y-16442609D01*
X18779211Y-16442609D02*
X18798259Y-16452133D01*
X18798259Y-16452133D02*
X18807783Y-16461656D01*
X18807783Y-16461656D02*
X18817307Y-16480704D01*
X18817307Y-16480704D02*
X18826830Y-16518799D01*
X18826830Y-16518799D02*
X18826830Y-16566418D01*
X18826830Y-16566418D02*
X18817307Y-16604513D01*
X18817307Y-16604513D02*
X18807783Y-16623561D01*
X18807783Y-16623561D02*
X18798259Y-16633085D01*
X18798259Y-16633085D02*
X18779211Y-16642609D01*
X18779211Y-16642609D02*
X18760164Y-16642609D01*
X18760164Y-16642609D02*
X18741116Y-16633085D01*
X18741116Y-16633085D02*
X18731592Y-16623561D01*
X18731592Y-16623561D02*
X18722069Y-16604513D01*
X18722069Y-16604513D02*
X18712545Y-16566418D01*
X18712545Y-16566418D02*
X18712545Y-16518799D01*
X18712545Y-16518799D02*
X18722069Y-16480704D01*
X18722069Y-16480704D02*
X18731592Y-16461656D01*
X18731592Y-16461656D02*
X18741116Y-16452133D01*
X18741116Y-16452133D02*
X18760164Y-16442609D01*
X18912545Y-16642609D02*
X18912545Y-16509275D01*
X18912545Y-16528323D02*
X18922069Y-16518799D01*
X18922069Y-16518799D02*
X18941116Y-16509275D01*
X18941116Y-16509275D02*
X18969688Y-16509275D01*
X18969688Y-16509275D02*
X18988735Y-16518799D01*
X18988735Y-16518799D02*
X18998259Y-16537847D01*
X18998259Y-16537847D02*
X18998259Y-16642609D01*
X18998259Y-16537847D02*
X19007783Y-16518799D01*
X19007783Y-16518799D02*
X19026830Y-16509275D01*
X19026830Y-16509275D02*
X19055402Y-16509275D01*
X19055402Y-16509275D02*
X19074450Y-16518799D01*
X19074450Y-16518799D02*
X19083973Y-16537847D01*
X19083973Y-16537847D02*
X19083973Y-16642609D01*
X19179211Y-16642609D02*
X19179211Y-16509275D01*
X19179211Y-16528323D02*
X19188735Y-16518799D01*
X19188735Y-16518799D02*
X19207783Y-16509275D01*
X19207783Y-16509275D02*
X19236354Y-16509275D01*
X19236354Y-16509275D02*
X19255402Y-16518799D01*
X19255402Y-16518799D02*
X19264926Y-16537847D01*
X19264926Y-16537847D02*
X19264926Y-16642609D01*
X19264926Y-16537847D02*
X19274450Y-16518799D01*
X19274450Y-16518799D02*
X19293497Y-16509275D01*
X19293497Y-16509275D02*
X19322069Y-16509275D01*
X19322069Y-16509275D02*
X19341116Y-16518799D01*
X19341116Y-16518799D02*
X19350640Y-16537847D01*
X19350640Y-16537847D02*
X19350640Y-16642609D01*
X19741116Y-16433085D02*
X19569688Y-16690228D01*
X19998259Y-16442609D02*
X20017307Y-16442609D01*
X20017307Y-16442609D02*
X20036354Y-16452133D01*
X20036354Y-16452133D02*
X20045878Y-16461656D01*
X20045878Y-16461656D02*
X20055402Y-16480704D01*
X20055402Y-16480704D02*
X20064926Y-16518799D01*
X20064926Y-16518799D02*
X20064926Y-16566418D01*
X20064926Y-16566418D02*
X20055402Y-16604513D01*
X20055402Y-16604513D02*
X20045878Y-16623561D01*
X20045878Y-16623561D02*
X20036354Y-16633085D01*
X20036354Y-16633085D02*
X20017307Y-16642609D01*
X20017307Y-16642609D02*
X19998259Y-16642609D01*
X19998259Y-16642609D02*
X19979212Y-16633085D01*
X19979212Y-16633085D02*
X19969688Y-16623561D01*
X19969688Y-16623561D02*
X19960164Y-16604513D01*
X19960164Y-16604513D02*
X19950640Y-16566418D01*
X19950640Y-16566418D02*
X19950640Y-16518799D01*
X19950640Y-16518799D02*
X19960164Y-16480704D01*
X19960164Y-16480704D02*
X19969688Y-16461656D01*
X19969688Y-16461656D02*
X19979212Y-16452133D01*
X19979212Y-16452133D02*
X19998259Y-16442609D01*
X20150640Y-16623561D02*
X20160164Y-16633085D01*
X20160164Y-16633085D02*
X20150640Y-16642609D01*
X20150640Y-16642609D02*
X20141116Y-16633085D01*
X20141116Y-16633085D02*
X20150640Y-16623561D01*
X20150640Y-16623561D02*
X20150640Y-16642609D01*
X20283973Y-16442609D02*
X20303021Y-16442609D01*
X20303021Y-16442609D02*
X20322069Y-16452133D01*
X20322069Y-16452133D02*
X20331593Y-16461656D01*
X20331593Y-16461656D02*
X20341116Y-16480704D01*
X20341116Y-16480704D02*
X20350640Y-16518799D01*
X20350640Y-16518799D02*
X20350640Y-16566418D01*
X20350640Y-16566418D02*
X20341116Y-16604513D01*
X20341116Y-16604513D02*
X20331593Y-16623561D01*
X20331593Y-16623561D02*
X20322069Y-16633085D01*
X20322069Y-16633085D02*
X20303021Y-16642609D01*
X20303021Y-16642609D02*
X20283973Y-16642609D01*
X20283973Y-16642609D02*
X20264926Y-16633085D01*
X20264926Y-16633085D02*
X20255402Y-16623561D01*
X20255402Y-16623561D02*
X20245878Y-16604513D01*
X20245878Y-16604513D02*
X20236354Y-16566418D01*
X20236354Y-16566418D02*
X20236354Y-16518799D01*
X20236354Y-16518799D02*
X20245878Y-16480704D01*
X20245878Y-16480704D02*
X20255402Y-16461656D01*
X20255402Y-16461656D02*
X20264926Y-16452133D01*
X20264926Y-16452133D02*
X20283973Y-16442609D01*
X20522069Y-16442609D02*
X20483973Y-16442609D01*
X20483973Y-16442609D02*
X20464926Y-16452133D01*
X20464926Y-16452133D02*
X20455402Y-16461656D01*
X20455402Y-16461656D02*
X20436354Y-16490228D01*
X20436354Y-16490228D02*
X20426831Y-16528323D01*
X20426831Y-16528323D02*
X20426831Y-16604513D01*
X20426831Y-16604513D02*
X20436354Y-16623561D01*
X20436354Y-16623561D02*
X20445878Y-16633085D01*
X20445878Y-16633085D02*
X20464926Y-16642609D01*
X20464926Y-16642609D02*
X20503021Y-16642609D01*
X20503021Y-16642609D02*
X20522069Y-16633085D01*
X20522069Y-16633085D02*
X20531593Y-16623561D01*
X20531593Y-16623561D02*
X20541116Y-16604513D01*
X20541116Y-16604513D02*
X20541116Y-16556894D01*
X20541116Y-16556894D02*
X20531593Y-16537847D01*
X20531593Y-16537847D02*
X20522069Y-16528323D01*
X20522069Y-16528323D02*
X20503021Y-16518799D01*
X20503021Y-16518799D02*
X20464926Y-16518799D01*
X20464926Y-16518799D02*
X20445878Y-16528323D01*
X20445878Y-16528323D02*
X20436354Y-16537847D01*
X20436354Y-16537847D02*
X20426831Y-16556894D01*
X20712545Y-16442609D02*
X20674450Y-16442609D01*
X20674450Y-16442609D02*
X20655402Y-16452133D01*
X20655402Y-16452133D02*
X20645878Y-16461656D01*
X20645878Y-16461656D02*
X20626831Y-16490228D01*
X20626831Y-16490228D02*
X20617307Y-16528323D01*
X20617307Y-16528323D02*
X20617307Y-16604513D01*
X20617307Y-16604513D02*
X20626831Y-16623561D01*
X20626831Y-16623561D02*
X20636354Y-16633085D01*
X20636354Y-16633085D02*
X20655402Y-16642609D01*
X20655402Y-16642609D02*
X20693497Y-16642609D01*
X20693497Y-16642609D02*
X20712545Y-16633085D01*
X20712545Y-16633085D02*
X20722069Y-16623561D01*
X20722069Y-16623561D02*
X20731593Y-16604513D01*
X20731593Y-16604513D02*
X20731593Y-16556894D01*
X20731593Y-16556894D02*
X20722069Y-16537847D01*
X20722069Y-16537847D02*
X20712545Y-16528323D01*
X20712545Y-16528323D02*
X20693497Y-16518799D01*
X20693497Y-16518799D02*
X20655402Y-16518799D01*
X20655402Y-16518799D02*
X20636354Y-16528323D01*
X20636354Y-16528323D02*
X20626831Y-16537847D01*
X20626831Y-16537847D02*
X20617307Y-16556894D01*
X20826831Y-16642609D02*
X20864926Y-16642609D01*
X20864926Y-16642609D02*
X20883974Y-16633085D01*
X20883974Y-16633085D02*
X20893497Y-16623561D01*
X20893497Y-16623561D02*
X20912545Y-16594990D01*
X20912545Y-16594990D02*
X20922069Y-16556894D01*
X20922069Y-16556894D02*
X20922069Y-16480704D01*
X20922069Y-16480704D02*
X20912545Y-16461656D01*
X20912545Y-16461656D02*
X20903021Y-16452133D01*
X20903021Y-16452133D02*
X20883974Y-16442609D01*
X20883974Y-16442609D02*
X20845878Y-16442609D01*
X20845878Y-16442609D02*
X20826831Y-16452133D01*
X20826831Y-16452133D02*
X20817307Y-16461656D01*
X20817307Y-16461656D02*
X20807783Y-16480704D01*
X20807783Y-16480704D02*
X20807783Y-16528323D01*
X20807783Y-16528323D02*
X20817307Y-16547371D01*
X20817307Y-16547371D02*
X20826831Y-16556894D01*
X20826831Y-16556894D02*
X20845878Y-16566418D01*
X20845878Y-16566418D02*
X20883974Y-16566418D01*
X20883974Y-16566418D02*
X20903021Y-16556894D01*
X20903021Y-16556894D02*
X20912545Y-16547371D01*
X20912545Y-16547371D02*
X20922069Y-16528323D01*
X20998259Y-16442609D02*
X20998259Y-16480704D01*
X21074450Y-16442609D02*
X21074450Y-16480704D01*
X21369688Y-16718799D02*
X21360164Y-16709275D01*
X21360164Y-16709275D02*
X21341116Y-16680704D01*
X21341116Y-16680704D02*
X21331593Y-16661656D01*
X21331593Y-16661656D02*
X21322069Y-16633085D01*
X21322069Y-16633085D02*
X21312545Y-16585466D01*
X21312545Y-16585466D02*
X21312545Y-16547371D01*
X21312545Y-16547371D02*
X21322069Y-16499752D01*
X21322069Y-16499752D02*
X21331593Y-16471180D01*
X21331593Y-16471180D02*
X21341116Y-16452133D01*
X21341116Y-16452133D02*
X21360164Y-16423561D01*
X21360164Y-16423561D02*
X21369688Y-16414037D01*
X21474450Y-16528323D02*
X21455402Y-16518799D01*
X21455402Y-16518799D02*
X21445878Y-16509275D01*
X21445878Y-16509275D02*
X21436355Y-16490228D01*
X21436355Y-16490228D02*
X21436355Y-16480704D01*
X21436355Y-16480704D02*
X21445878Y-16461656D01*
X21445878Y-16461656D02*
X21455402Y-16452133D01*
X21455402Y-16452133D02*
X21474450Y-16442609D01*
X21474450Y-16442609D02*
X21512545Y-16442609D01*
X21512545Y-16442609D02*
X21531593Y-16452133D01*
X21531593Y-16452133D02*
X21541116Y-16461656D01*
X21541116Y-16461656D02*
X21550640Y-16480704D01*
X21550640Y-16480704D02*
X21550640Y-16490228D01*
X21550640Y-16490228D02*
X21541116Y-16509275D01*
X21541116Y-16509275D02*
X21531593Y-16518799D01*
X21531593Y-16518799D02*
X21512545Y-16528323D01*
X21512545Y-16528323D02*
X21474450Y-16528323D01*
X21474450Y-16528323D02*
X21455402Y-16537847D01*
X21455402Y-16537847D02*
X21445878Y-16547371D01*
X21445878Y-16547371D02*
X21436355Y-16566418D01*
X21436355Y-16566418D02*
X21436355Y-16604513D01*
X21436355Y-16604513D02*
X21445878Y-16623561D01*
X21445878Y-16623561D02*
X21455402Y-16633085D01*
X21455402Y-16633085D02*
X21474450Y-16642609D01*
X21474450Y-16642609D02*
X21512545Y-16642609D01*
X21512545Y-16642609D02*
X21531593Y-16633085D01*
X21531593Y-16633085D02*
X21541116Y-16623561D01*
X21541116Y-16623561D02*
X21550640Y-16604513D01*
X21550640Y-16604513D02*
X21550640Y-16566418D01*
X21550640Y-16566418D02*
X21541116Y-16547371D01*
X21541116Y-16547371D02*
X21531593Y-16537847D01*
X21531593Y-16537847D02*
X21512545Y-16528323D01*
X21788736Y-16642609D02*
X21788736Y-16442609D01*
X21874450Y-16642609D02*
X21874450Y-16537847D01*
X21874450Y-16537847D02*
X21864926Y-16518799D01*
X21864926Y-16518799D02*
X21845878Y-16509275D01*
X21845878Y-16509275D02*
X21817307Y-16509275D01*
X21817307Y-16509275D02*
X21798259Y-16518799D01*
X21798259Y-16518799D02*
X21788736Y-16528323D01*
X21998259Y-16642609D02*
X21979212Y-16633085D01*
X21979212Y-16633085D02*
X21969688Y-16623561D01*
X21969688Y-16623561D02*
X21960164Y-16604513D01*
X21960164Y-16604513D02*
X21960164Y-16547371D01*
X21960164Y-16547371D02*
X21969688Y-16528323D01*
X21969688Y-16528323D02*
X21979212Y-16518799D01*
X21979212Y-16518799D02*
X21998259Y-16509275D01*
X21998259Y-16509275D02*
X22026831Y-16509275D01*
X22026831Y-16509275D02*
X22045878Y-16518799D01*
X22045878Y-16518799D02*
X22055402Y-16528323D01*
X22055402Y-16528323D02*
X22064926Y-16547371D01*
X22064926Y-16547371D02*
X22064926Y-16604513D01*
X22064926Y-16604513D02*
X22055402Y-16623561D01*
X22055402Y-16623561D02*
X22045878Y-16633085D01*
X22045878Y-16633085D02*
X22026831Y-16642609D01*
X22026831Y-16642609D02*
X21998259Y-16642609D01*
X22179212Y-16642609D02*
X22160164Y-16633085D01*
X22160164Y-16633085D02*
X22150640Y-16614037D01*
X22150640Y-16614037D02*
X22150640Y-16442609D01*
X22331593Y-16633085D02*
X22312545Y-16642609D01*
X22312545Y-16642609D02*
X22274450Y-16642609D01*
X22274450Y-16642609D02*
X22255402Y-16633085D01*
X22255402Y-16633085D02*
X22245878Y-16614037D01*
X22245878Y-16614037D02*
X22245878Y-16537847D01*
X22245878Y-16537847D02*
X22255402Y-16518799D01*
X22255402Y-16518799D02*
X22274450Y-16509275D01*
X22274450Y-16509275D02*
X22312545Y-16509275D01*
X22312545Y-16509275D02*
X22331593Y-16518799D01*
X22331593Y-16518799D02*
X22341117Y-16537847D01*
X22341117Y-16537847D02*
X22341117Y-16556894D01*
X22341117Y-16556894D02*
X22245878Y-16575942D01*
X22417307Y-16633085D02*
X22436355Y-16642609D01*
X22436355Y-16642609D02*
X22474450Y-16642609D01*
X22474450Y-16642609D02*
X22493497Y-16633085D01*
X22493497Y-16633085D02*
X22503021Y-16614037D01*
X22503021Y-16614037D02*
X22503021Y-16604513D01*
X22503021Y-16604513D02*
X22493497Y-16585466D01*
X22493497Y-16585466D02*
X22474450Y-16575942D01*
X22474450Y-16575942D02*
X22445878Y-16575942D01*
X22445878Y-16575942D02*
X22426831Y-16566418D01*
X22426831Y-16566418D02*
X22417307Y-16547371D01*
X22417307Y-16547371D02*
X22417307Y-16537847D01*
X22417307Y-16537847D02*
X22426831Y-16518799D01*
X22426831Y-16518799D02*
X22445878Y-16509275D01*
X22445878Y-16509275D02*
X22474450Y-16509275D01*
X22474450Y-16509275D02*
X22493497Y-16518799D01*
X22569688Y-16718799D02*
X22579212Y-16709275D01*
X22579212Y-16709275D02*
X22598259Y-16680704D01*
X22598259Y-16680704D02*
X22607783Y-16661656D01*
X22607783Y-16661656D02*
X22617307Y-16633085D01*
X22617307Y-16633085D02*
X22626831Y-16585466D01*
X22626831Y-16585466D02*
X22626831Y-16547371D01*
X22626831Y-16547371D02*
X22617307Y-16499752D01*
X22617307Y-16499752D02*
X22607783Y-16471180D01*
X22607783Y-16471180D02*
X22598259Y-16452133D01*
X22598259Y-16452133D02*
X22579212Y-16423561D01*
X22579212Y-16423561D02*
X22569688Y-16414037D01*
X22931593Y-16718799D02*
X22922069Y-16709275D01*
X22922069Y-16709275D02*
X22903021Y-16680704D01*
X22903021Y-16680704D02*
X22893497Y-16661656D01*
X22893497Y-16661656D02*
X22883974Y-16633085D01*
X22883974Y-16633085D02*
X22874450Y-16585466D01*
X22874450Y-16585466D02*
X22874450Y-16547371D01*
X22874450Y-16547371D02*
X22883974Y-16499752D01*
X22883974Y-16499752D02*
X22893497Y-16471180D01*
X22893497Y-16471180D02*
X22903021Y-16452133D01*
X22903021Y-16452133D02*
X22922069Y-16423561D01*
X22922069Y-16423561D02*
X22931593Y-16414037D01*
X23007783Y-16509275D02*
X23007783Y-16642609D01*
X23007783Y-16528323D02*
X23017307Y-16518799D01*
X23017307Y-16518799D02*
X23036355Y-16509275D01*
X23036355Y-16509275D02*
X23064926Y-16509275D01*
X23064926Y-16509275D02*
X23083974Y-16518799D01*
X23083974Y-16518799D02*
X23093497Y-16537847D01*
X23093497Y-16537847D02*
X23093497Y-16642609D01*
X23217307Y-16642609D02*
X23198259Y-16633085D01*
X23198259Y-16633085D02*
X23188736Y-16623561D01*
X23188736Y-16623561D02*
X23179212Y-16604513D01*
X23179212Y-16604513D02*
X23179212Y-16547371D01*
X23179212Y-16547371D02*
X23188736Y-16528323D01*
X23188736Y-16528323D02*
X23198259Y-16518799D01*
X23198259Y-16518799D02*
X23217307Y-16509275D01*
X23217307Y-16509275D02*
X23245878Y-16509275D01*
X23245878Y-16509275D02*
X23264926Y-16518799D01*
X23264926Y-16518799D02*
X23274450Y-16528323D01*
X23274450Y-16528323D02*
X23283974Y-16547371D01*
X23283974Y-16547371D02*
X23283974Y-16604513D01*
X23283974Y-16604513D02*
X23274450Y-16623561D01*
X23274450Y-16623561D02*
X23264926Y-16633085D01*
X23264926Y-16633085D02*
X23245878Y-16642609D01*
X23245878Y-16642609D02*
X23217307Y-16642609D01*
X23341117Y-16509275D02*
X23417307Y-16509275D01*
X23369688Y-16442609D02*
X23369688Y-16614037D01*
X23369688Y-16614037D02*
X23379212Y-16633085D01*
X23379212Y-16633085D02*
X23398259Y-16642609D01*
X23398259Y-16642609D02*
X23417307Y-16642609D01*
X23636355Y-16509275D02*
X23636355Y-16709275D01*
X23636355Y-16518799D02*
X23655402Y-16509275D01*
X23655402Y-16509275D02*
X23693498Y-16509275D01*
X23693498Y-16509275D02*
X23712545Y-16518799D01*
X23712545Y-16518799D02*
X23722069Y-16528323D01*
X23722069Y-16528323D02*
X23731593Y-16547371D01*
X23731593Y-16547371D02*
X23731593Y-16604513D01*
X23731593Y-16604513D02*
X23722069Y-16623561D01*
X23722069Y-16623561D02*
X23712545Y-16633085D01*
X23712545Y-16633085D02*
X23693498Y-16642609D01*
X23693498Y-16642609D02*
X23655402Y-16642609D01*
X23655402Y-16642609D02*
X23636355Y-16633085D01*
X23845878Y-16642609D02*
X23826831Y-16633085D01*
X23826831Y-16633085D02*
X23817307Y-16614037D01*
X23817307Y-16614037D02*
X23817307Y-16442609D01*
X24007783Y-16642609D02*
X24007783Y-16537847D01*
X24007783Y-16537847D02*
X23998259Y-16518799D01*
X23998259Y-16518799D02*
X23979212Y-16509275D01*
X23979212Y-16509275D02*
X23941117Y-16509275D01*
X23941117Y-16509275D02*
X23922069Y-16518799D01*
X24007783Y-16633085D02*
X23988736Y-16642609D01*
X23988736Y-16642609D02*
X23941117Y-16642609D01*
X23941117Y-16642609D02*
X23922069Y-16633085D01*
X23922069Y-16633085D02*
X23912545Y-16614037D01*
X23912545Y-16614037D02*
X23912545Y-16594990D01*
X23912545Y-16594990D02*
X23922069Y-16575942D01*
X23922069Y-16575942D02*
X23941117Y-16566418D01*
X23941117Y-16566418D02*
X23988736Y-16566418D01*
X23988736Y-16566418D02*
X24007783Y-16556894D01*
X24074450Y-16509275D02*
X24150640Y-16509275D01*
X24103021Y-16442609D02*
X24103021Y-16614037D01*
X24103021Y-16614037D02*
X24112545Y-16633085D01*
X24112545Y-16633085D02*
X24131593Y-16642609D01*
X24131593Y-16642609D02*
X24150640Y-16642609D01*
X24293498Y-16633085D02*
X24274450Y-16642609D01*
X24274450Y-16642609D02*
X24236355Y-16642609D01*
X24236355Y-16642609D02*
X24217307Y-16633085D01*
X24217307Y-16633085D02*
X24207783Y-16614037D01*
X24207783Y-16614037D02*
X24207783Y-16537847D01*
X24207783Y-16537847D02*
X24217307Y-16518799D01*
X24217307Y-16518799D02*
X24236355Y-16509275D01*
X24236355Y-16509275D02*
X24274450Y-16509275D01*
X24274450Y-16509275D02*
X24293498Y-16518799D01*
X24293498Y-16518799D02*
X24303021Y-16537847D01*
X24303021Y-16537847D02*
X24303021Y-16556894D01*
X24303021Y-16556894D02*
X24207783Y-16575942D01*
X24474450Y-16642609D02*
X24474450Y-16442609D01*
X24474450Y-16633085D02*
X24455402Y-16642609D01*
X24455402Y-16642609D02*
X24417307Y-16642609D01*
X24417307Y-16642609D02*
X24398259Y-16633085D01*
X24398259Y-16633085D02*
X24388736Y-16623561D01*
X24388736Y-16623561D02*
X24379212Y-16604513D01*
X24379212Y-16604513D02*
X24379212Y-16547371D01*
X24379212Y-16547371D02*
X24388736Y-16528323D01*
X24388736Y-16528323D02*
X24398259Y-16518799D01*
X24398259Y-16518799D02*
X24417307Y-16509275D01*
X24417307Y-16509275D02*
X24455402Y-16509275D01*
X24455402Y-16509275D02*
X24474450Y-16518799D01*
X24550640Y-16718799D02*
X24560164Y-16709275D01*
X24560164Y-16709275D02*
X24579212Y-16680704D01*
X24579212Y-16680704D02*
X24588736Y-16661656D01*
X24588736Y-16661656D02*
X24598259Y-16633085D01*
X24598259Y-16633085D02*
X24607783Y-16585466D01*
X24607783Y-16585466D02*
X24607783Y-16547371D01*
X24607783Y-16547371D02*
X24598259Y-16499752D01*
X24598259Y-16499752D02*
X24588736Y-16471180D01*
X24588736Y-16471180D02*
X24579212Y-16452133D01*
X24579212Y-16452133D02*
X24560164Y-16423561D01*
X24560164Y-16423561D02*
X24550640Y-16414037D01*
X17794625Y-16841125D02*
G75*
G02*
X17594625Y-16841125I-100000J0D01*
G01*
X17594625Y-16841125D02*
G75*
G02*
X17794625Y-16841125I100000J0D01*
G01*
X18141116Y-16799275D02*
X18141116Y-16932609D01*
X18093497Y-16723085D02*
X18045878Y-16865942D01*
X18045878Y-16865942D02*
X18169688Y-16865942D01*
X18245878Y-16913561D02*
X18255402Y-16923085D01*
X18255402Y-16923085D02*
X18245878Y-16932609D01*
X18245878Y-16932609D02*
X18236354Y-16923085D01*
X18236354Y-16923085D02*
X18245878Y-16913561D01*
X18245878Y-16913561D02*
X18245878Y-16932609D01*
X18379211Y-16732609D02*
X18398259Y-16732609D01*
X18398259Y-16732609D02*
X18417307Y-16742133D01*
X18417307Y-16742133D02*
X18426830Y-16751656D01*
X18426830Y-16751656D02*
X18436354Y-16770704D01*
X18436354Y-16770704D02*
X18445878Y-16808799D01*
X18445878Y-16808799D02*
X18445878Y-16856418D01*
X18445878Y-16856418D02*
X18436354Y-16894514D01*
X18436354Y-16894514D02*
X18426830Y-16913561D01*
X18426830Y-16913561D02*
X18417307Y-16923085D01*
X18417307Y-16923085D02*
X18398259Y-16932609D01*
X18398259Y-16932609D02*
X18379211Y-16932609D01*
X18379211Y-16932609D02*
X18360164Y-16923085D01*
X18360164Y-16923085D02*
X18350640Y-16913561D01*
X18350640Y-16913561D02*
X18341116Y-16894514D01*
X18341116Y-16894514D02*
X18331592Y-16856418D01*
X18331592Y-16856418D02*
X18331592Y-16808799D01*
X18331592Y-16808799D02*
X18341116Y-16770704D01*
X18341116Y-16770704D02*
X18350640Y-16751656D01*
X18350640Y-16751656D02*
X18360164Y-16742133D01*
X18360164Y-16742133D02*
X18379211Y-16732609D01*
X18569688Y-16732609D02*
X18588735Y-16732609D01*
X18588735Y-16732609D02*
X18607783Y-16742133D01*
X18607783Y-16742133D02*
X18617307Y-16751656D01*
X18617307Y-16751656D02*
X18626830Y-16770704D01*
X18626830Y-16770704D02*
X18636354Y-16808799D01*
X18636354Y-16808799D02*
X18636354Y-16856418D01*
X18636354Y-16856418D02*
X18626830Y-16894514D01*
X18626830Y-16894514D02*
X18617307Y-16913561D01*
X18617307Y-16913561D02*
X18607783Y-16923085D01*
X18607783Y-16923085D02*
X18588735Y-16932609D01*
X18588735Y-16932609D02*
X18569688Y-16932609D01*
X18569688Y-16932609D02*
X18550640Y-16923085D01*
X18550640Y-16923085D02*
X18541116Y-16913561D01*
X18541116Y-16913561D02*
X18531592Y-16894514D01*
X18531592Y-16894514D02*
X18522069Y-16856418D01*
X18522069Y-16856418D02*
X18522069Y-16808799D01*
X18522069Y-16808799D02*
X18531592Y-16770704D01*
X18531592Y-16770704D02*
X18541116Y-16751656D01*
X18541116Y-16751656D02*
X18550640Y-16742133D01*
X18550640Y-16742133D02*
X18569688Y-16732609D01*
X18760164Y-16732609D02*
X18779211Y-16732609D01*
X18779211Y-16732609D02*
X18798259Y-16742133D01*
X18798259Y-16742133D02*
X18807783Y-16751656D01*
X18807783Y-16751656D02*
X18817307Y-16770704D01*
X18817307Y-16770704D02*
X18826830Y-16808799D01*
X18826830Y-16808799D02*
X18826830Y-16856418D01*
X18826830Y-16856418D02*
X18817307Y-16894514D01*
X18817307Y-16894514D02*
X18807783Y-16913561D01*
X18807783Y-16913561D02*
X18798259Y-16923085D01*
X18798259Y-16923085D02*
X18779211Y-16932609D01*
X18779211Y-16932609D02*
X18760164Y-16932609D01*
X18760164Y-16932609D02*
X18741116Y-16923085D01*
X18741116Y-16923085D02*
X18731592Y-16913561D01*
X18731592Y-16913561D02*
X18722069Y-16894514D01*
X18722069Y-16894514D02*
X18712545Y-16856418D01*
X18712545Y-16856418D02*
X18712545Y-16808799D01*
X18712545Y-16808799D02*
X18722069Y-16770704D01*
X18722069Y-16770704D02*
X18731592Y-16751656D01*
X18731592Y-16751656D02*
X18741116Y-16742133D01*
X18741116Y-16742133D02*
X18760164Y-16732609D01*
X18912545Y-16932609D02*
X18912545Y-16799275D01*
X18912545Y-16818323D02*
X18922069Y-16808799D01*
X18922069Y-16808799D02*
X18941116Y-16799275D01*
X18941116Y-16799275D02*
X18969688Y-16799275D01*
X18969688Y-16799275D02*
X18988735Y-16808799D01*
X18988735Y-16808799D02*
X18998259Y-16827847D01*
X18998259Y-16827847D02*
X18998259Y-16932609D01*
X18998259Y-16827847D02*
X19007783Y-16808799D01*
X19007783Y-16808799D02*
X19026830Y-16799275D01*
X19026830Y-16799275D02*
X19055402Y-16799275D01*
X19055402Y-16799275D02*
X19074450Y-16808799D01*
X19074450Y-16808799D02*
X19083973Y-16827847D01*
X19083973Y-16827847D02*
X19083973Y-16932609D01*
X19179211Y-16932609D02*
X19179211Y-16799275D01*
X19179211Y-16818323D02*
X19188735Y-16808799D01*
X19188735Y-16808799D02*
X19207783Y-16799275D01*
X19207783Y-16799275D02*
X19236354Y-16799275D01*
X19236354Y-16799275D02*
X19255402Y-16808799D01*
X19255402Y-16808799D02*
X19264926Y-16827847D01*
X19264926Y-16827847D02*
X19264926Y-16932609D01*
X19264926Y-16827847D02*
X19274450Y-16808799D01*
X19274450Y-16808799D02*
X19293497Y-16799275D01*
X19293497Y-16799275D02*
X19322069Y-16799275D01*
X19322069Y-16799275D02*
X19341116Y-16808799D01*
X19341116Y-16808799D02*
X19350640Y-16827847D01*
X19350640Y-16827847D02*
X19350640Y-16932609D01*
X19741116Y-16723085D02*
X19569688Y-16980228D01*
X19998259Y-16732609D02*
X20017307Y-16732609D01*
X20017307Y-16732609D02*
X20036354Y-16742133D01*
X20036354Y-16742133D02*
X20045878Y-16751656D01*
X20045878Y-16751656D02*
X20055402Y-16770704D01*
X20055402Y-16770704D02*
X20064926Y-16808799D01*
X20064926Y-16808799D02*
X20064926Y-16856418D01*
X20064926Y-16856418D02*
X20055402Y-16894514D01*
X20055402Y-16894514D02*
X20045878Y-16913561D01*
X20045878Y-16913561D02*
X20036354Y-16923085D01*
X20036354Y-16923085D02*
X20017307Y-16932609D01*
X20017307Y-16932609D02*
X19998259Y-16932609D01*
X19998259Y-16932609D02*
X19979212Y-16923085D01*
X19979212Y-16923085D02*
X19969688Y-16913561D01*
X19969688Y-16913561D02*
X19960164Y-16894514D01*
X19960164Y-16894514D02*
X19950640Y-16856418D01*
X19950640Y-16856418D02*
X19950640Y-16808799D01*
X19950640Y-16808799D02*
X19960164Y-16770704D01*
X19960164Y-16770704D02*
X19969688Y-16751656D01*
X19969688Y-16751656D02*
X19979212Y-16742133D01*
X19979212Y-16742133D02*
X19998259Y-16732609D01*
X20150640Y-16913561D02*
X20160164Y-16923085D01*
X20160164Y-16923085D02*
X20150640Y-16932609D01*
X20150640Y-16932609D02*
X20141116Y-16923085D01*
X20141116Y-16923085D02*
X20150640Y-16913561D01*
X20150640Y-16913561D02*
X20150640Y-16932609D01*
X20350640Y-16932609D02*
X20236354Y-16932609D01*
X20293497Y-16932609D02*
X20293497Y-16732609D01*
X20293497Y-16732609D02*
X20274450Y-16761180D01*
X20274450Y-16761180D02*
X20255402Y-16780228D01*
X20255402Y-16780228D02*
X20236354Y-16789752D01*
X20531593Y-16732609D02*
X20436354Y-16732609D01*
X20436354Y-16732609D02*
X20426831Y-16827847D01*
X20426831Y-16827847D02*
X20436354Y-16818323D01*
X20436354Y-16818323D02*
X20455402Y-16808799D01*
X20455402Y-16808799D02*
X20503021Y-16808799D01*
X20503021Y-16808799D02*
X20522069Y-16818323D01*
X20522069Y-16818323D02*
X20531593Y-16827847D01*
X20531593Y-16827847D02*
X20541116Y-16846895D01*
X20541116Y-16846895D02*
X20541116Y-16894514D01*
X20541116Y-16894514D02*
X20531593Y-16913561D01*
X20531593Y-16913561D02*
X20522069Y-16923085D01*
X20522069Y-16923085D02*
X20503021Y-16932609D01*
X20503021Y-16932609D02*
X20455402Y-16932609D01*
X20455402Y-16932609D02*
X20436354Y-16923085D01*
X20436354Y-16923085D02*
X20426831Y-16913561D01*
X20607783Y-16732609D02*
X20741116Y-16732609D01*
X20741116Y-16732609D02*
X20655402Y-16932609D01*
X20912545Y-16732609D02*
X20817307Y-16732609D01*
X20817307Y-16732609D02*
X20807783Y-16827847D01*
X20807783Y-16827847D02*
X20817307Y-16818323D01*
X20817307Y-16818323D02*
X20836354Y-16808799D01*
X20836354Y-16808799D02*
X20883974Y-16808799D01*
X20883974Y-16808799D02*
X20903021Y-16818323D01*
X20903021Y-16818323D02*
X20912545Y-16827847D01*
X20912545Y-16827847D02*
X20922069Y-16846895D01*
X20922069Y-16846895D02*
X20922069Y-16894514D01*
X20922069Y-16894514D02*
X20912545Y-16913561D01*
X20912545Y-16913561D02*
X20903021Y-16923085D01*
X20903021Y-16923085D02*
X20883974Y-16932609D01*
X20883974Y-16932609D02*
X20836354Y-16932609D01*
X20836354Y-16932609D02*
X20817307Y-16923085D01*
X20817307Y-16923085D02*
X20807783Y-16913561D01*
X20998259Y-16732609D02*
X20998259Y-16770704D01*
X21074450Y-16732609D02*
X21074450Y-16770704D01*
X21369688Y-17008799D02*
X21360164Y-16999275D01*
X21360164Y-16999275D02*
X21341116Y-16970704D01*
X21341116Y-16970704D02*
X21331593Y-16951656D01*
X21331593Y-16951656D02*
X21322069Y-16923085D01*
X21322069Y-16923085D02*
X21312545Y-16875466D01*
X21312545Y-16875466D02*
X21312545Y-16837371D01*
X21312545Y-16837371D02*
X21322069Y-16789752D01*
X21322069Y-16789752D02*
X21331593Y-16761180D01*
X21331593Y-16761180D02*
X21341116Y-16742133D01*
X21341116Y-16742133D02*
X21360164Y-16713561D01*
X21360164Y-16713561D02*
X21369688Y-16704037D01*
X21531593Y-16799275D02*
X21531593Y-16932609D01*
X21483974Y-16723085D02*
X21436355Y-16865942D01*
X21436355Y-16865942D02*
X21560164Y-16865942D01*
X21788736Y-16932609D02*
X21788736Y-16732609D01*
X21874450Y-16932609D02*
X21874450Y-16827847D01*
X21874450Y-16827847D02*
X21864926Y-16808799D01*
X21864926Y-16808799D02*
X21845878Y-16799275D01*
X21845878Y-16799275D02*
X21817307Y-16799275D01*
X21817307Y-16799275D02*
X21798259Y-16808799D01*
X21798259Y-16808799D02*
X21788736Y-16818323D01*
X21998259Y-16932609D02*
X21979212Y-16923085D01*
X21979212Y-16923085D02*
X21969688Y-16913561D01*
X21969688Y-16913561D02*
X21960164Y-16894514D01*
X21960164Y-16894514D02*
X21960164Y-16837371D01*
X21960164Y-16837371D02*
X21969688Y-16818323D01*
X21969688Y-16818323D02*
X21979212Y-16808799D01*
X21979212Y-16808799D02*
X21998259Y-16799275D01*
X21998259Y-16799275D02*
X22026831Y-16799275D01*
X22026831Y-16799275D02*
X22045878Y-16808799D01*
X22045878Y-16808799D02*
X22055402Y-16818323D01*
X22055402Y-16818323D02*
X22064926Y-16837371D01*
X22064926Y-16837371D02*
X22064926Y-16894514D01*
X22064926Y-16894514D02*
X22055402Y-16913561D01*
X22055402Y-16913561D02*
X22045878Y-16923085D01*
X22045878Y-16923085D02*
X22026831Y-16932609D01*
X22026831Y-16932609D02*
X21998259Y-16932609D01*
X22179212Y-16932609D02*
X22160164Y-16923085D01*
X22160164Y-16923085D02*
X22150640Y-16904037D01*
X22150640Y-16904037D02*
X22150640Y-16732609D01*
X22331593Y-16923085D02*
X22312545Y-16932609D01*
X22312545Y-16932609D02*
X22274450Y-16932609D01*
X22274450Y-16932609D02*
X22255402Y-16923085D01*
X22255402Y-16923085D02*
X22245878Y-16904037D01*
X22245878Y-16904037D02*
X22245878Y-16827847D01*
X22245878Y-16827847D02*
X22255402Y-16808799D01*
X22255402Y-16808799D02*
X22274450Y-16799275D01*
X22274450Y-16799275D02*
X22312545Y-16799275D01*
X22312545Y-16799275D02*
X22331593Y-16808799D01*
X22331593Y-16808799D02*
X22341117Y-16827847D01*
X22341117Y-16827847D02*
X22341117Y-16846895D01*
X22341117Y-16846895D02*
X22245878Y-16865942D01*
X22417307Y-16923085D02*
X22436355Y-16932609D01*
X22436355Y-16932609D02*
X22474450Y-16932609D01*
X22474450Y-16932609D02*
X22493497Y-16923085D01*
X22493497Y-16923085D02*
X22503021Y-16904037D01*
X22503021Y-16904037D02*
X22503021Y-16894514D01*
X22503021Y-16894514D02*
X22493497Y-16875466D01*
X22493497Y-16875466D02*
X22474450Y-16865942D01*
X22474450Y-16865942D02*
X22445878Y-16865942D01*
X22445878Y-16865942D02*
X22426831Y-16856418D01*
X22426831Y-16856418D02*
X22417307Y-16837371D01*
X22417307Y-16837371D02*
X22417307Y-16827847D01*
X22417307Y-16827847D02*
X22426831Y-16808799D01*
X22426831Y-16808799D02*
X22445878Y-16799275D01*
X22445878Y-16799275D02*
X22474450Y-16799275D01*
X22474450Y-16799275D02*
X22493497Y-16808799D01*
X22569688Y-17008799D02*
X22579212Y-16999275D01*
X22579212Y-16999275D02*
X22598259Y-16970704D01*
X22598259Y-16970704D02*
X22607783Y-16951656D01*
X22607783Y-16951656D02*
X22617307Y-16923085D01*
X22617307Y-16923085D02*
X22626831Y-16875466D01*
X22626831Y-16875466D02*
X22626831Y-16837371D01*
X22626831Y-16837371D02*
X22617307Y-16789752D01*
X22617307Y-16789752D02*
X22607783Y-16761180D01*
X22607783Y-16761180D02*
X22598259Y-16742133D01*
X22598259Y-16742133D02*
X22579212Y-16713561D01*
X22579212Y-16713561D02*
X22569688Y-16704037D01*
X22931593Y-17008799D02*
X22922069Y-16999275D01*
X22922069Y-16999275D02*
X22903021Y-16970704D01*
X22903021Y-16970704D02*
X22893497Y-16951656D01*
X22893497Y-16951656D02*
X22883974Y-16923085D01*
X22883974Y-16923085D02*
X22874450Y-16875466D01*
X22874450Y-16875466D02*
X22874450Y-16837371D01*
X22874450Y-16837371D02*
X22883974Y-16789752D01*
X22883974Y-16789752D02*
X22893497Y-16761180D01*
X22893497Y-16761180D02*
X22903021Y-16742133D01*
X22903021Y-16742133D02*
X22922069Y-16713561D01*
X22922069Y-16713561D02*
X22931593Y-16704037D01*
X23007783Y-16799275D02*
X23007783Y-16932609D01*
X23007783Y-16818323D02*
X23017307Y-16808799D01*
X23017307Y-16808799D02*
X23036355Y-16799275D01*
X23036355Y-16799275D02*
X23064926Y-16799275D01*
X23064926Y-16799275D02*
X23083974Y-16808799D01*
X23083974Y-16808799D02*
X23093497Y-16827847D01*
X23093497Y-16827847D02*
X23093497Y-16932609D01*
X23217307Y-16932609D02*
X23198259Y-16923085D01*
X23198259Y-16923085D02*
X23188736Y-16913561D01*
X23188736Y-16913561D02*
X23179212Y-16894514D01*
X23179212Y-16894514D02*
X23179212Y-16837371D01*
X23179212Y-16837371D02*
X23188736Y-16818323D01*
X23188736Y-16818323D02*
X23198259Y-16808799D01*
X23198259Y-16808799D02*
X23217307Y-16799275D01*
X23217307Y-16799275D02*
X23245878Y-16799275D01*
X23245878Y-16799275D02*
X23264926Y-16808799D01*
X23264926Y-16808799D02*
X23274450Y-16818323D01*
X23274450Y-16818323D02*
X23283974Y-16837371D01*
X23283974Y-16837371D02*
X23283974Y-16894514D01*
X23283974Y-16894514D02*
X23274450Y-16913561D01*
X23274450Y-16913561D02*
X23264926Y-16923085D01*
X23264926Y-16923085D02*
X23245878Y-16932609D01*
X23245878Y-16932609D02*
X23217307Y-16932609D01*
X23341117Y-16799275D02*
X23417307Y-16799275D01*
X23369688Y-16732609D02*
X23369688Y-16904037D01*
X23369688Y-16904037D02*
X23379212Y-16923085D01*
X23379212Y-16923085D02*
X23398259Y-16932609D01*
X23398259Y-16932609D02*
X23417307Y-16932609D01*
X23636355Y-16799275D02*
X23636355Y-16999275D01*
X23636355Y-16808799D02*
X23655402Y-16799275D01*
X23655402Y-16799275D02*
X23693498Y-16799275D01*
X23693498Y-16799275D02*
X23712545Y-16808799D01*
X23712545Y-16808799D02*
X23722069Y-16818323D01*
X23722069Y-16818323D02*
X23731593Y-16837371D01*
X23731593Y-16837371D02*
X23731593Y-16894514D01*
X23731593Y-16894514D02*
X23722069Y-16913561D01*
X23722069Y-16913561D02*
X23712545Y-16923085D01*
X23712545Y-16923085D02*
X23693498Y-16932609D01*
X23693498Y-16932609D02*
X23655402Y-16932609D01*
X23655402Y-16932609D02*
X23636355Y-16923085D01*
X23845878Y-16932609D02*
X23826831Y-16923085D01*
X23826831Y-16923085D02*
X23817307Y-16904037D01*
X23817307Y-16904037D02*
X23817307Y-16732609D01*
X24007783Y-16932609D02*
X24007783Y-16827847D01*
X24007783Y-16827847D02*
X23998259Y-16808799D01*
X23998259Y-16808799D02*
X23979212Y-16799275D01*
X23979212Y-16799275D02*
X23941117Y-16799275D01*
X23941117Y-16799275D02*
X23922069Y-16808799D01*
X24007783Y-16923085D02*
X23988736Y-16932609D01*
X23988736Y-16932609D02*
X23941117Y-16932609D01*
X23941117Y-16932609D02*
X23922069Y-16923085D01*
X23922069Y-16923085D02*
X23912545Y-16904037D01*
X23912545Y-16904037D02*
X23912545Y-16884990D01*
X23912545Y-16884990D02*
X23922069Y-16865942D01*
X23922069Y-16865942D02*
X23941117Y-16856418D01*
X23941117Y-16856418D02*
X23988736Y-16856418D01*
X23988736Y-16856418D02*
X24007783Y-16846895D01*
X24074450Y-16799275D02*
X24150640Y-16799275D01*
X24103021Y-16732609D02*
X24103021Y-16904037D01*
X24103021Y-16904037D02*
X24112545Y-16923085D01*
X24112545Y-16923085D02*
X24131593Y-16932609D01*
X24131593Y-16932609D02*
X24150640Y-16932609D01*
X24293498Y-16923085D02*
X24274450Y-16932609D01*
X24274450Y-16932609D02*
X24236355Y-16932609D01*
X24236355Y-16932609D02*
X24217307Y-16923085D01*
X24217307Y-16923085D02*
X24207783Y-16904037D01*
X24207783Y-16904037D02*
X24207783Y-16827847D01*
X24207783Y-16827847D02*
X24217307Y-16808799D01*
X24217307Y-16808799D02*
X24236355Y-16799275D01*
X24236355Y-16799275D02*
X24274450Y-16799275D01*
X24274450Y-16799275D02*
X24293498Y-16808799D01*
X24293498Y-16808799D02*
X24303021Y-16827847D01*
X24303021Y-16827847D02*
X24303021Y-16846895D01*
X24303021Y-16846895D02*
X24207783Y-16865942D01*
X24474450Y-16932609D02*
X24474450Y-16732609D01*
X24474450Y-16923085D02*
X24455402Y-16932609D01*
X24455402Y-16932609D02*
X24417307Y-16932609D01*
X24417307Y-16932609D02*
X24398259Y-16923085D01*
X24398259Y-16923085D02*
X24388736Y-16913561D01*
X24388736Y-16913561D02*
X24379212Y-16894514D01*
X24379212Y-16894514D02*
X24379212Y-16837371D01*
X24379212Y-16837371D02*
X24388736Y-16818323D01*
X24388736Y-16818323D02*
X24398259Y-16808799D01*
X24398259Y-16808799D02*
X24417307Y-16799275D01*
X24417307Y-16799275D02*
X24455402Y-16799275D01*
X24455402Y-16799275D02*
X24474450Y-16808799D01*
X24550640Y-17008799D02*
X24560164Y-16999275D01*
X24560164Y-16999275D02*
X24579212Y-16970704D01*
X24579212Y-16970704D02*
X24588736Y-16951656D01*
X24588736Y-16951656D02*
X24598259Y-16923085D01*
X24598259Y-16923085D02*
X24607783Y-16875466D01*
X24607783Y-16875466D02*
X24607783Y-16837371D01*
X24607783Y-16837371D02*
X24598259Y-16789752D01*
X24598259Y-16789752D02*
X24588736Y-16761180D01*
X24588736Y-16761180D02*
X24579212Y-16742133D01*
X24579212Y-16742133D02*
X24560164Y-16713561D01*
X24560164Y-16713561D02*
X24550640Y-16704037D01*
M02*
