%TF.GenerationSoftware,KiCad,Pcbnew,8.0.7*%
%TF.CreationDate,2025-05-21T00:02:28-04:00*%
%TF.ProjectId,macropad,6d616372-6f70-4616-942e-6b696361645f,rev?*%
%TF.SameCoordinates,Original*%
%TF.FileFunction,Soldermask,Top*%
%TF.FilePolarity,Negative*%
%FSLAX46Y46*%
G04 Gerber Fmt 4.6, Leading zero omitted, Abs format (unit mm)*
G04 Created by KiCad (PCBNEW 8.0.7) date 2025-05-21 00:02:28*
%MOMM*%
%LPD*%
G01*
G04 APERTURE LIST*
G04 Aperture macros list*
%AMRoundRect*
0 Rectangle with rounded corners*
0 $1 Rounding radius*
0 $2 $3 $4 $5 $6 $7 $8 $9 X,Y pos of 4 corners*
0 Add a 4 corners polygon primitive as box body*
4,1,4,$2,$3,$4,$5,$6,$7,$8,$9,$2,$3,0*
0 Add four circle primitives for the rounded corners*
1,1,$1+$1,$2,$3*
1,1,$1+$1,$4,$5*
1,1,$1+$1,$6,$7*
1,1,$1+$1,$8,$9*
0 Add four rect primitives between the rounded corners*
20,1,$1+$1,$2,$3,$4,$5,0*
20,1,$1+$1,$4,$5,$6,$7,0*
20,1,$1+$1,$6,$7,$8,$9,0*
20,1,$1+$1,$8,$9,$2,$3,0*%
G04 Aperture macros list end*
%ADD10RoundRect,0.152400X1.063600X0.609600X-1.063600X0.609600X-1.063600X-0.609600X1.063600X-0.609600X0*%
%ADD11C,1.524000*%
%ADD12RoundRect,0.152400X-1.063600X-0.609600X1.063600X-0.609600X1.063600X0.609600X-1.063600X0.609600X0*%
%ADD13C,1.700000*%
%ADD14C,4.000000*%
%ADD15C,2.200000*%
%ADD16R,1.600000X0.850000*%
G04 APERTURE END LIST*
D10*
%TO.C,U1*%
X190947500Y-99078750D03*
D11*
X191782500Y-99078750D03*
D10*
X190947500Y-101618750D03*
D11*
X191782500Y-101618750D03*
D10*
X190947500Y-104158750D03*
D11*
X191782500Y-104158750D03*
D10*
X190947500Y-106698750D03*
D11*
X191782500Y-106698750D03*
D10*
X190947500Y-109238750D03*
D11*
X191782500Y-109238750D03*
D10*
X190947500Y-111778750D03*
D11*
X191782500Y-111778750D03*
D10*
X190947500Y-114318750D03*
D11*
X191782500Y-114318750D03*
X207022500Y-114318750D03*
D12*
X207857500Y-114318750D03*
D11*
X207022500Y-111778750D03*
D12*
X207857500Y-111778750D03*
D11*
X207022500Y-109238750D03*
D12*
X207857500Y-109238750D03*
D11*
X207022500Y-106698750D03*
D12*
X207857500Y-106698750D03*
D11*
X207022500Y-104158750D03*
D12*
X207857500Y-104158750D03*
D11*
X207022500Y-101618750D03*
D12*
X207857500Y-101618750D03*
D11*
X207022500Y-99078750D03*
D12*
X207857500Y-99078750D03*
%TD*%
D13*
%TO.C,SW4*%
X184480000Y-147180000D03*
D14*
X189560000Y-147180000D03*
D13*
X194640000Y-147180000D03*
D15*
X192100000Y-142100000D03*
X185750000Y-144640000D03*
%TD*%
D16*
%TO.C,D1*%
X213690000Y-109080000D03*
X213690000Y-110830000D03*
X217190000Y-110830000D03*
X217190000Y-109080000D03*
%TD*%
D13*
%TO.C,SW3*%
X203530000Y-147180000D03*
D14*
X208610000Y-147180000D03*
D13*
X213690000Y-147180000D03*
D15*
X211150000Y-142100000D03*
X204800000Y-144640000D03*
%TD*%
D13*
%TO.C,SW2*%
X203530000Y-128130000D03*
D14*
X208610000Y-128130000D03*
D13*
X213690000Y-128130000D03*
D15*
X211150000Y-123050000D03*
X204800000Y-125590000D03*
%TD*%
D13*
%TO.C,SW1*%
X184480000Y-128130000D03*
D14*
X189560000Y-128130000D03*
D13*
X194640000Y-128130000D03*
D15*
X192100000Y-123050000D03*
X185750000Y-125590000D03*
%TD*%
D16*
%TO.C,D2*%
X180983750Y-108205000D03*
X180983750Y-109955000D03*
X184483750Y-109955000D03*
X184483750Y-108205000D03*
%TD*%
M02*
